<svg xmlns="http://www.w3.org/2000/svg" xmlns:xlink="http://www.w3.org/1999/xlink" xmlns:inkscape="http://www.inkscape.org/namespaces/inkscape" version="1.1" width="900" height="705" viewBox="0 0 900 705">
<g>
<path d="M0 0H900V705H0Z" fill="#ffffff"/>
<text fill="#1e293b" xml:space="preserve" transform="matrix(1 0 0 1 0 0)" font-size="19.5" font-family="PZPNQD+LiberationSans-Bold" font-weight="bold"><tspan y="33" x="30 46.2435 57.085504 63.579004 79.842 93.921009 105.81601 122.07901 136.158 148.05301 158.895 170.79001 182.68502 207.60602 219.50102 231.39603 236.79753 247.62004 260.60707 271.44908 282.29109 288.78459 299.6266 322.3831 336.4621 344.0476 354.88963 366.7846 372.1861 378.6796 389.5216 400.36363 406.85713 418.7521 426.33763">MetaAdsAgent&#x2014;FullSystemArchitecture</tspan></text>
<text fill="#64748b" xml:space="preserve" transform="matrix(1 0 0 1 0 0)" font-size="9.75" font-family="TQVTSI+LiberationSans"><tspan y="51.75" x="30.75 37.2435 39.408 44.283 49.158 54.579004 62.700754 68.12175 73.54275 78.963748 84.38474 89.80574 92.50649 100.091999 106.0395 111.460498 113.62499 118.49999 123.92099 132.05249 140.17424 145.59525 148.29599 156.42749 159.12824 164.54924 169.97025 172.13475 179.72025 185.66774 191.08875 196.50975 201.93076 205.1775 210.59851 213.29926 215.46376 220.88477 229.01627 234.43727 239.85828 244.73328 247.43402 250.68077 252.84528 258.26628 266.39778 274.79255 276.95704 282.37803 287.799 291.04579 296.46678 298.63127 304.05226 312.18376 314.34825 319.76924 325.19023 333.32173 339.279 344.69999 350.12098 355.54197 358.78874 364.20973 367.45649 372.87748 375.04197 377.20646 382.62745 390.74919 396.17018 401.59117 404.2919 409.7129 417.83467 423.25566 425.9564 428.12089 433.54188">Allcomponents&#x00b7;all14Metatools&#x00b7;operatingdoctrine+learningloop&#x00b7;guardrailedautomation</tspan></text>
<path stroke-width="1.5" stroke-linecap="butt" stroke-miterlimit="4" stroke-linejoin="miter" fill="none" stroke="#1877f2" d="M30 63H870"/>
<path d="M52.5 73.5H262.5C266.641 73.5 270 77.641 270 81V111C270 115.141 266.641 118.5 262.5 118.5H52.5C48.359 118.5 45 114.359 45 111V81C45 76.859 48.359 73.5 52.5 73.5ZM52.5 73.5" fill="#eaf2fe"/>
<path stroke-width="1.125" stroke-linecap="butt" stroke-miterlimit="4" stroke-linejoin="miter" fill="none" stroke="#1877f2" d="M52.5 73.5H262.5C266.641 73.5 270 77.641 270 81V111C270 115.141 266.641 118.5 262.5 118.5H52.5C48.359 118.5 45 114.359 45 111V81C45 76.859 48.359 73.5 52.5 73.5ZM52.5 73.5"/>
<text fill="#1e293b" xml:space="preserve" transform="matrix(1 0 0 1 0 0)" font-size="11.25" font-family="PZPNQD+LiberationSans-Bold" font-weight="bold"><tspan y="93" x="60 67.4925 70.60875 76.86375 83.118747 92.50124 101.24249 108.104999 112.48125 118.736248 124.99124 131.85375 138.10875 144.36376">Slackworkspace</tspan></text>
<text fill="#64748b" xml:space="preserve" transform="matrix(1 0 0 1 0 0)" font-size="8.625" font-family="TQVTSI+LiberationSans"><tspan y="108" x="60 64.3125 69.108 76.301258 82.5285 92.11088 96.89775 105.65213 112.836757 117.632259 122.42776 124.81688 126.73163 131.52713 138.71176 141.10089 145.8964 153.08965 157.88515 162.68065 167.47615 172.27165">youDM/@mentiontheagent</tspan></text>
<path d="M345 73.5H555C559.141 73.5 562.5 77.641 562.5 81V111C562.5 115.141 559.141 118.5 555 118.5H345C340.859 118.5 337.5 114.359 337.5 111V81C337.5 76.859 340.859 73.5 345 73.5ZM345 73.5" fill="#1e293b"/>
<text fill="#ffffff" xml:space="preserve" transform="matrix(1 0 0 1 0 0)" font-size="11.25" font-family="PZPNQD+LiberationSans-Bold" font-weight="bold"><tspan y="93" x="398.11329 407.48454 413.73954 417.48579 426.8683 436.23954 442.49455 446.8708 453.1258 459.3808 463.12705 466.2433 473.10578 483.09577 491.21827 498.71076">MetaMarketingAPI</tspan></text>
<text fill="#cbd5e1" xml:space="preserve" transform="matrix(1 0 0 1 0 0)" font-size="8.25" font-family="TQVTSI+LiberationSans"><tspan y="108" x="389.90235 394.02735 398.61436 405.4866 410.0736 414.6606 416.49214 421.07914 425.66615 432.08464 437.11714 441.70414 446.29115 450.87815 452.70967 457.29667 461.88368 466.00868 470.59568 477.02244 482.05494 483.88645 488.47346 492.59846 494.42997 499.01698 503.60398 505.88923">campaigns&#x00b7;audiences&#x00b7;insights</tspan></text>
<path d="M637.5 73.5H847.5C851.641 73.5 855 77.641 855 81V111C855 115.141 851.641 118.5 847.5 118.5H637.5C633.359 118.5 630 114.359 630 111V81C630 76.859 633.359 73.5 637.5 73.5ZM637.5 73.5" fill="#eaf2fe"/>
<path stroke-width="1.125" stroke-linecap="butt" stroke-miterlimit="4" stroke-linejoin="miter" fill="none" stroke="#1877f2" d="M637.5 73.5H847.5C851.641 73.5 855 77.641 855 81V111C855 115.141 851.641 118.5 847.5 118.5H637.5C633.359 118.5 630 114.359 630 111V81C630 76.859 633.359 73.5 637.5 73.5ZM637.5 73.5"/>
<text fill="#1e293b" xml:space="preserve" transform="matrix(1 0 0 1 0 0)" font-size="11.25" font-family="PZPNQD+LiberationSans-Bold" font-weight="bold"><tspan y="93" x="645 655.60879 661.8638 671.85379 678.71627 683.09249 689.95498 698.6962 704.95126 711.20626">Webbrowser</tspan></text>
<text fill="#64748b" xml:space="preserve" transform="matrix(1 0 0 1 0 0)" font-size="8.625" font-family="TQVTSI+LiberationSans"><tspan y="108" x="645 652.18466 656.9801 661.7756 663.6903 666.0794 670.8749 673.747 675.66177 680.4572 685.2527 690.03958 694.835 699.6305 706.34078 711.1362 715.9317 720.2442 722.15896 726.47146">monitoring,anydevice</tspan></text>
<path d="M40.5 138H859.5C865.301 138 870 143.801 870 148.5V562.5C870 568.301 865.301 573 859.5 573H40.5C34.699 573 30 567.199 30 562.5V148.5C30 142.699 34.699 138 40.5 138ZM40.5 138" fill="#f8fafc"/>
<path stroke-width="1.125" stroke-linecap="butt" stroke-miterlimit="4" stroke-linejoin="miter" fill="none" stroke="#cbd5e1" d="M40.5 138H859.5C865.301 138 870 143.801 870 148.5V562.5C870 568.301 865.301 573 859.5 573H40.5C34.699 573 30 567.199 30 562.5V148.5C30 142.699 34.699 138 40.5 138ZM40.5 138"/>
<text fill="#94a3b8" xml:space="preserve" transform="matrix(1 0 0 1 0 0)" font-size="9.375" font-family="PZPNQD+LiberationSans-Bold" font-weight="bold"><tspan y="156.75" x="46.5 54.39375 61.2375 69.64687 77.54063 89.16563 97.143749 103.987499 110.831249 118.2 121.921878 125.64375">CLOUD&#x00b7;FLY.IO</tspan></text>
<path d="M58.5 169.5H292.5C296.641 169.5 300 173.641 300 177V349.5C300 353.641 296.641 357 292.5 357H58.5C54.359 357 51 352.859 51 349.5V177C51 172.859 54.359 169.5 58.5 169.5ZM58.5 169.5" fill="#1877f2"/>
<text fill="#ffffff" xml:space="preserve" transform="matrix(1 0 0 1 0 0)" font-size="12" font-family="PZPNQD+LiberationSans-Bold" font-weight="bold"><tspan y="189.75" x="66 73.992 77.315998 83.98799 90.65999 100.667987 109.331989 116.651988 123.32399 130.644 137.976 141.972 149.964 157.28401 163.95601 170.628 177.3 184.62001 194.61602 201.93602 209.25603 215.92803">SlackAgent(SocketMode)</tspan></text>
<text fill="#dbeafe" xml:space="preserve" transform="matrix(1 0 0 1 0 0)" font-size="8.625" font-family="TQVTSI+LiberationSans"><tspan y="209.25" x="66 71.416507 80.17088 87.35551 92.15101 96.94651 99.33563 101.25038 106.04588 113.239139 120.65663 126.88388 136.46627 141.26177 146.05727 150.85277 155.64827 157.56302 162.35852 165.23065">&#x2022;@mention+DMhandlers</tspan><tspan y="225" x="66 71.416507 77.16075 81.95625 86.751758 89.62388 94.41938 98.73188 105.92513 110.712009 116.45625 121.251758 125.564258 132.26589 137.06139 144.25464 149.05014 153.36264 158.15814 161.03028 167.74053 172.05303 176.84853 181.64403 186.43953 191.23503 198.42829 201.30042 206.09592 210.89142 212.80617 214.72092 221.91417 229.33168 233.64418 238.43968 243.23519 248.03069 252.82619">&#x2022;Approve/Passoneverychange(build+spend)</tspan><tspan y="240.75" x="66">&#x2022;</tspan></text>
<text fill="#dbeafe" xml:space="preserve" transform="matrix(1 0 0 1 0 0)" font-size="8.625" font-family="FIYKFH+LiberationSans"><tspan y="240.75" x="71.416507">&#x1f44d;</tspan></text>
<text fill="#dbeafe" xml:space="preserve" transform="matrix(1 0 0 1 0 0)" font-size="8.625" font-family="TQVTSI+LiberationSans"><tspan y="240.75" x="80.283008">/</tspan></text>
<text fill="#dbeafe" xml:space="preserve" transform="matrix(1 0 0 1 0 0)" font-size="8.625" font-family="FIYKFH+LiberationSans"><tspan y="240.75" x="85.06988">&#x1f44d;</tspan></text>
<text fill="#dbeafe" xml:space="preserve" transform="matrix(1 0 0 1 0 0)" font-size="8.625" font-family="TQVTSI+LiberationSans"><tspan y="240.75" x="93.92775 96.79987 101.595378 106.39088 110.70338 113.0925 115.00725 119.80275 124.59825">reactions</tspan></text>
<text fill="#dbeafe" xml:space="preserve" transform="matrix(1 0 0 1 0 0)" font-size="8.625" font-family="FIYKFH+LiberationSans"><tspan y="240.75" x="131.3085">&#x2192;</tspan></text>
<text fill="#dbeafe" xml:space="preserve" transform="matrix(1 0 0 1 0 0)" font-size="8.625" font-family="TQVTSI+LiberationSans"><tspan y="240.75" x="142.33126 144.246 149.0415 153.837 156.70914 161.50464 163.41939 168.21489 175.40814 179.72064 181.63539 186.4309 191.2264 196.0219">learningsignal</tspan><tspan y="256.5" x="66 71.416507 77.16075 81.47325 86.26875 91.064258 95.85976 100.65526 102.57001 107.36551 110.23763 114.55013 119.337009 124.13251 128.92801 130.84276 132.7575 139.45914 144.25464 147.12677 149.04152 153.83702 156.22615 158.1409 162.9364 170.13828 177.55579 182.35129 187.14679 191.94229 194.81443 197.20355 201.99906 204.87119 206.78594 213.49619 216.36832 221.16382 223.55295 226.42508 231.22058 235.53308">&#x2022;Schedulers:dailybriefing+quarterlyrefresh</tspan><tspan y="272.25" x="66 71.416507 76.212009 81.00751 85.80301 88.67513 93.470638 95.38538 100.180889 107.37414 111.68664 114.07576 118.87126 121.743389 128.93663 139.95076 145.695 152.39664 157.19214 159.10689 161.49602 168.68927 171.5614 173.95053 178.74604 183.54154 185.93067 190.72617">&#x2022;Learningstore&#x2014;SQLite(/data)</tspan></text>
<text fill="#bfdbfe" xml:space="preserve" transform="matrix(1 0 0 1 0 0)" font-size="7.875" font-family="TQVTSI+LiberationSans"><tspan y="286.5" x="75 79.3785 83.757 87.6945 89.44276 93.38026 95.12851 99.50701 103.88551 110.01226 114.82388 119.202388 123.58089 127.95939 130.58176 134.96025 138.89775 143.27625 145.02449 151.15125 155.955 160.3335 162.95587 167.33437 169.51575">decisions&#x00b7;approvals&#x00b7;prefs</tspan></text>
<text fill="#dbeafe" xml:space="preserve" transform="matrix(1 0 0 1 0 0)" font-size="8.625" font-family="TQVTSI+LiberationSans"><tspan y="302.25" x="66 71.416507 76.212009 81.00751 85.80301 90.59851 97.30876 102.10426 104.97639 109.77189 111.68664 118.87126 126.297389 130.6099 135.4054 137.32015 139.2349 145.94515 152.1724 154.08715 158.88265 163.67815 168.47365">&#x2022;Loadsbrain+callsClaude</tspan><tspan y="318" x="66 71.416507 73.805629 80.99025 85.78575 90.58125 93.45338 95.8425 102.55275 104.94187 109.73737 116.922 124.10662 130.33388 138.47588 140.865 145.6605 150.45601 152.37076 159.08101 163.87651 165.79126 168.66339 173.4589 177.7714 180.16053 182.07527">&#x2022;ImportstheMCPtoolsdirectly</tspan><tspan y="333.75" x="66 71.416507 78.118129 82.91363 85.30275 90.09825 96.8085 101.604007 105.916507 110.712009 113.58413 120.29438 126.52163 129.39376 131.3085 133.69763 140.88227 143.7544 148.0669 150.93903 155.73453 160.04703 164.35953 167.23166 171.54416 176.33966 181.13516 185.93067 190.72617 195.99605 200.79155 205.58705 210.38256 212.2973 214.68643 219.48194 222.35407">&#x2022;Gateseverywrite(cross-vendorauditor)</tspan></text>
<path d="M321 169.5H607.5C611.641 169.5 615 173.641 615 177V207C615 211.141 611.641 214.5 607.5 214.5H321C316.859 214.5 313.5 210.359 313.5 207V177C313.5 172.859 316.859 169.5 321 169.5ZM321 169.5" fill="#ffffff"/>
<path stroke-width="1.125" stroke-linecap="butt" stroke-miterlimit="4" stroke-linejoin="miter" fill="none" stroke="#1877f2" d="M321 169.5H607.5C611.641 169.5 615 173.641 615 177V207C615 211.141 611.641 214.5 607.5 214.5H321C316.859 214.5 313.5 210.359 313.5 207V177C313.5 172.859 316.859 169.5 321 169.5ZM321 169.5"/>
<text fill="#1e293b" xml:space="preserve" transform="matrix(1 0 0 1 0 0)" font-size="10.875" font-family="PZPNQD+LiberationSans-Bold" font-weight="bold"><tspan y="188.25" x="327 334.85176 340.89826 346.94477 352.99128 359.62504 366.2588 369.27119 375.90495 385.56196 399.4602 407.31196 410.32435 416.37086 423.0046 429.63838">Reasoning&#x2014;Claude</tspan></text>
<text fill="#64748b" xml:space="preserve" transform="matrix(1 0 0 1 0 0)" font-size="8.625" font-family="TQVTSI+LiberationSans"><tspan y="188.25" x="450 455.74427 460.53977 465.33528 470.13078 474.92628 479.71315 482.58528 487.38078 492.17628 496.97178 498.88655 503.19905 507.51155 509.4263 516.13656 524.27859 529.07406 531.94619 533.8609 538.6564 541.0455 542.9602 547.7557 552.55117 556.86367">Sonnet(analysis&#x0026;briefings)</tspan><tspan y="201.75" x="450 456.22727 461.02278 462.93754 467.25004 474.44328 477.3154 481.6279 486.4234 491.2189 496.0144 503.20765 505.59678 508.4689 510.38368 515.17916 519.9746 527.16787 531.9633 536.7588 539.1479 543.94338">Haiku(cheaptriagegate)</tspan></text>
<path d="M321 223.5H607.5C611.641 223.5 615 227.641 615 231V274.5C615 278.641 611.641 282 607.5 282H321C316.859 282 313.5 277.859 313.5 274.5V231C313.5 226.859 316.859 223.5 321 223.5ZM321 223.5" fill="#fef3e2"/>
<path stroke-width=".9" stroke-linecap="butt" stroke-miterlimit="4" stroke-linejoin="miter" fill="none" stroke="#d97706" d="M321 223.5H607.5C611.641 223.5 615 227.641 615 231V274.5C615 278.641 611.641 282 607.5 282H321C316.859 282 313.5 277.859 313.5 274.5V231C313.5 226.859 316.859 223.5 321 223.5ZM321 223.5"/>
<text fill="#92400e" xml:space="preserve" transform="matrix(1 0 0 1 0 0)" font-size="10.125" font-family="PZPNQD+LiberationSans-Bold" font-weight="bold"><tspan y="240" x="327 334.86714 341.04338 346.67286 350.61149 356.24098 359.61259 362.4172 368.59346 377.58445 383.76069 389.93693 395.5664 398.93803 402.87666 405.68128 411.8575">Operatingdoctrine</tspan></text>
<text fill="#7c5410" xml:space="preserve" transform="matrix(1 0 0 1 0 0)" font-size="8.25" font-family="TQVTSI+LiberationSans"><tspan y="255" x="327 332.4945 338.90476 344.39927 350.35578 355.38829 359.97529 362.26054 368.21705 373.71156 378.74406 384.70057 390.65708 396.6136 401.6461 403.93135 410.34159 416.2981 424.0861 426.83335 430.95835 435.54536 440.13236 441.96388 446.55088 449.29814 452.04539 456.6324 461.2194 465.3444 469.9314 474.97215 477.7194 482.3064 484.1379 491.01017 498.80644 502.93144 507.51844 509.34996 513.475 518.06198 523.0945">AGENT_INSTRUCTIONS(senior-buyerrole&#x0026;voice)&#x00b7;</tspan><tspan y="267.75" x="327 332.9565 338.45103 346.70103 351.28804 355.87504 360.46205 365.04905 369.63606 374.6768 379.7093 385.6658 390.2528 394.3778 396.20933 400.33433 402.16584 406.75285 413.63334 418.66584 421.4131 426.0001 432.87236 437.45936 443.41587 448.00288 450.75013 457.1686 459.91587 466.79637 471.38337 475.97038 480.09538 484.22038 488.80738 491.09263 497.5111 502.55186 509.43235 515.8426 520.42959 525.01657 529.14157 531.4268 533.2583 537.8453 542.43228 546.55728 551.5898">CACLadder&#x00b7;DecisionFramework(4buckets&#x00b7;5Questions)&#x00b7;</tspan><tspan y="278.25" x="327 331.587 336.174 340.76103 344.88603 349.47303 351.75828 353.58979 358.1768 365.05729 366.8888 371.4758 375.6008 380.1878 385.22856 387.9758 392.5628 396.6878 401.2748 404.02207 410.4323 413.17958 417.76658 424.18507 428.77207 433.35908 439.77757 446.65806 449.4053 455.36183 459.94883 466.3673 468.65257 473.23957 475.07109 481.48957 488.36183 492.94883 495.23408 497.51933 502.10633 504.85359 508.97859 511.72584">educationlayer(everyrechasa&#x201c;whythismatters&#x201d;)</tspan></text>
<path d="M321 291H607.5C611.641 291 615 295.141 615 298.5V349.5C615 353.641 611.641 357 607.5 357H321C316.859 357 313.5 352.859 313.5 349.5V298.5C313.5 294.359 316.859 291 321 291ZM321 291" fill="#eaf2fe"/>
<path stroke-width=".9" stroke-linecap="butt" stroke-miterlimit="4" stroke-linejoin="miter" fill="none" stroke="#1877f2" d="M321 291H607.5C611.641 291 615 295.141 615 298.5V349.5C615 353.641 611.641 357 607.5 357H321C316.859 357 313.5 352.859 313.5 349.5V298.5C313.5 294.359 316.859 291 321 291ZM321 291"/>
<text fill="#1e293b" xml:space="preserve" transform="matrix(1 0 0 1 0 0)" font-size="10.125" font-family="PZPNQD+LiberationSans-Bold" font-weight="bold"><tspan y="307.5" x="327 333.74327 339.37275 345.54899 348.3536 351.72523 360.16947 363.54109 366.9127 373.08894 381.53318 387.7094 391.64805 397.27754 400.08216 409.06303 413.00166 418.63114 424.26063 430.43687 438.8811 442.25273 448.42897 454.05845 459.68794 468.13218 473.76167 479.39115 485.02064 488.95927 497.4035 500.77513 503.57975 512.5809 518.2104">Vaults(thebrainreadstheseeverytime)</tspan></text>
<text fill="#475569" xml:space="preserve" transform="matrix(1 0 0 1 0 0)" font-size="8.25" font-family="TQVTSI+LiberationSans"><tspan y="322.5" x="327 332.4945 337.0815 341.66853 347.62504 349.45655 354.04356 358.63056 363.21757 370.09806 380.64155 385.22856 387.06007 391.64707 395.77207 400.35908 404.94609 409.53309 415.94334 420.98408 425.57109 430.15809 434.7451 438.8701 443.4571 450.32936 454.91636 457.6636 461.7886 468.2071 473.24784 477.83485 479.66636 484.25337 488.37837 492.50337 497.09037 499.83763 506.2561 511.29685 515.88388 517.71536 522.3023 524.5876 526.87289 531.45986 534.2071 543.37289 546.1201 550.7071 552.5386 557.12557">Knowledge&#x2014;playbook&#x00b7;benchmarks&#x00b7;glossary&#x00b7;platformrules</tspan><tspan y="335.25" x="327 331.587 336.174 340.76103 343.50828 348.09529 349.9268 354.5138 361.3943 371.93778 376.52479 381.1118 385.2368 387.0683 391.1933 393.0248 397.61183 404.48408 406.31559 410.9026 417.78309 424.88633 426.71784 431.30485 435.42985 439.55485 444.14186 448.72886 455.14735 460.18809 464.7751 469.3621 471.64735 476.23435 478.9816 483.5686 486.31587 490.90287 495.48988 500.07688 506.94914 511.53614 516.1231 517.9546 519.7861">Learning&#x2014;decisionlog+lessons&#x00b7;auto-gradeddaily</tspan></text>
<text fill="#475569" xml:space="preserve" transform="matrix(1 0 0 1 0 0)" font-size="8.25" font-family="FIYKFH+LiberationSans"><tspan y="335.25" x="526.2128">&#x2192;</tspan></text>
<text fill="#475569" xml:space="preserve" transform="matrix(1 0 0 1 0 0)" font-size="8.25" font-family="TQVTSI+LiberationSans"><tspan y="335.25" x="536.75637 541.3433 545.9303 554.17208 556.00357 560.5905 564.7155 568.8405 573.4275 578.01449">newlessons</tspan><tspan y="348" x="327 332.4945 337.0815 339.82878 342.57603 347.16304 349.91029 354.49729 359.0843 365.96479 376.50828 382.00279 383.8343 388.4213 392.5463 397.1333 401.7203 406.3073 412.71757 417.7583 423.2528 427.8398 432.42683 434.25834 438.84535 443.43235 447.55735 454.43785 461.3101 465.8971 472.7776 477.81834 483.77485 488.36186 492.48686 494.31837 498.44337 500.27488 504.86189 511.74238 516.32937 520.9163">Per-brand&#x2014;Playbook&#x00b7;AudienceMap&#x00b7;DecisionLog</tspan></text>
<path d="M636 169.5H840C844.141 169.5 847.5 173.641 847.5 177V274.5C847.5 278.641 844.141 282 840 282H636C631.859 282 628.5 277.859 628.5 274.5V177C628.5 172.859 631.859 169.5 636 169.5ZM636 169.5" fill="#ffffff"/>
<path stroke-width="1.125" stroke-linecap="butt" stroke-miterlimit="4" stroke-linejoin="miter" fill="none" stroke="#1877f2" d="M636 169.5H840C844.141 169.5 847.5 173.641 847.5 177V274.5C847.5 278.641 844.141 282 840 282H636C631.859 282 628.5 277.859 628.5 274.5V177C628.5 172.859 631.859 169.5 636 169.5ZM636 169.5"/>
<text fill="#1e293b" xml:space="preserve" transform="matrix(1 0 0 1 0 0)" font-size="10.875" font-family="PZPNQD+LiberationSans-Bold" font-weight="bold"><tspan y="188.25" x="642 649.85177 655.89828 661.94479 668.5785 675.2122 681.84597 687.89248 692.1228 701.7798 705.4012 713.2529 719.29946 725.34597 728.96737 731.97976 734.9921 741.03866">Dashboard(Next.js)</tspan></text>
<text fill="#64748b" xml:space="preserve" transform="matrix(1 0 0 1 0 0)" font-size="8.625" font-family="TQVTSI+LiberationSans"><tspan y="205.5" x="642 646.7955 648.7102 653.0227 660.21597 666.4432 672.18746 680.81246 683.20156 686.07369 690.86917 693.25827 695.64736 697.5621 701.8746 704.7467 706.66146 708.5762 713.37167 718.1671 720.5562">LiveCACtraffic-lights</tspan><tspan y="219" x="642 649.18466 653.9801 655.89486 658.28396 660.19869 663.0708 667.8663 670.7384 675.5339 680.32937 687.5226 691.8351 696.63058 703.8152 708.61068 713.4061 715.32089 720.11636 727.3096 731.6221 733.5368 738.3323">Multi-brandcampaignview</tspan><tspan y="232.5" x="642 647.74429 652.53976 657.3352 663.56246 665.4772 670.27267 675.0681 679.8636 687.0568 694.483 699.27847 704.0739 708.8694 711.7415 716.537 718.4517 723.2472 730.43179 734.74429 736.659 741.45449 747.6817">Knowledge+Learningviews</tspan><tspan y="246" x="642 647.74429 652.53976 657.3352 662.1307 666.91757 673.1448 677.94027 682.7357 684.65048 687.03958 694.2328 699.02828 703.8237 708.6192">AgentHealthpage</tspan><tspan y="264" x="642 646.3125 651.108 653.9801 658.2926 663.0881 670.2813 675.0768 682.27 689.46328 694.2587 699.0542 703.8497 705.7644 707.67916 714.38076 720.608 726.8352">servedonapublicURL</tspan></text>
<path d="M636 291H840C844.141 291 847.5 295.141 847.5 298.5V349.5C847.5 353.641 844.141 357 840 357H636C631.859 357 628.5 352.859 628.5 349.5V298.5C628.5 294.359 631.859 291 636 291ZM636 291" fill="#f1f5f9"/>
<path stroke-width=".9" stroke-linecap="butt" stroke-miterlimit="4" stroke-linejoin="miter" fill="none" stroke="#cbd5e1" d="M636 291H840C844.141 291 847.5 295.141 847.5 298.5V349.5C847.5 353.641 844.141 357 840 357H636C631.859 357 628.5 352.859 628.5 349.5V298.5C628.5 294.359 631.859 291 636 291ZM636 291"/>
<text fill="#1e293b" xml:space="preserve" transform="matrix(1 0 0 1 0 0)" font-size="10.125" font-family="PZPNQD+LiberationSans-Bold" font-weight="bold"><tspan y="307.5" x="642 649.31027 654.93978 661.116 663.92068 670.0969 678.5412 688.6662 694.2957 699.92526 705.55477 709.49337 715.12289 718.4945">Deploy&#x0026;secrets</tspan></text>
<text fill="#64748b" xml:space="preserve" transform="matrix(1 0 0 1 0 0)" font-size="8.25" font-family="TQVTSI+LiberationSans"><tspan y="323.25" x="642 648.4103 650.24179 652.52706 658.4835 663.0705">GitHub</tspan></text>
<text fill="#64748b" xml:space="preserve" transform="matrix(1 0 0 1 0 0)" font-size="8.25" font-family="FIYKFH+LiberationSans"><tspan y="323.25" x="669.951">&#x2192;</tspan></text>
<text fill="#64748b" xml:space="preserve" transform="matrix(1 0 0 1 0 0)" font-size="8.25" font-family="TQVTSI+LiberationSans"><tspan y="323.25" x="680.4945 685.527 687.35848 691.48348 693.76876 695.6002 702.4725 705.2197 712.1002 716.6872 721.2742 725.86117 729.98617">Fly.io(2apps)</tspan><tspan y="336" x="642 647.4945 653.9048 658.49179 660.32327 662.6085 669.489 674.076 680.94827 685.5352 690.1222 692.86947 696.99447 698.8259 702.9509 705.2362 709.8232 714.41018 718.9972 723.1222 727.70919 729.54067 734.1276 740.9999">SQLiteonpersistentvolume</tspan><tspan y="348.75" x="642 646.125 650.712 654.837 657.5842 662.1712 664.4565 670.875 675 676.8315 683.712 688.74447 690.5759 696.99447 702.027 706.61398 711.2009 715.7879 722.6684 724.4999 731.3804 735.5054 740.09237 744.6793">secretsviaFly&#x00b7;noneincode</tspan></text>
<path d="M58.5 370.5H840C844.141 370.5 847.5 374.641 847.5 378V549C847.5 553.141 844.141 556.5 840 556.5H58.5C54.359 556.5 51 552.359 51 549V378C51 373.859 54.359 370.5 58.5 370.5ZM58.5 370.5" fill="#ffffff"/>
<path stroke-width="1.125" stroke-linecap="butt" stroke-miterlimit="4" stroke-linejoin="miter" fill="none" stroke="#64748b" d="M58.5 370.5H840C844.141 370.5 847.5 374.641 847.5 378V549C847.5 553.141 844.141 556.5 840 556.5H58.5C54.359 556.5 51 552.359 51 549V378C51 373.859 54.359 370.5 58.5 370.5ZM58.5 370.5"/>
<text fill="#1e293b" xml:space="preserve" transform="matrix(1 0 0 1 0 0)" font-size="11.625" font-family="PZPNQD+LiberationSans-Bold" font-weight="bold"><tspan y="391.5" x="66 75.683628 84.07687 95.05087 101.51437 107.977878 112.5 118.9635 125.427 133.18088 148.026 154.4895 164.18476 171.276 178.36725 184.83075 189.35288 196.44412 200.96625 207.42975 210.64987 213.87 220.3335 230.6565 240.34012 246.80362 250.67475 260.37 264.24113 271.33238 278.4236 281.64375">MCPserver&#x2014;14guardrailedMetatools</tspan></text>
<text fill="#64748b" xml:space="preserve" transform="matrix(1 0 0 1 0 0)" font-size="8.625" font-family="TQVTSI+LiberationSans"><tspan y="391.5" x="322.5 325.37214 330.16764 334.96315 342.15638 349.5825 351.97163 354.84376 359.63926 366.8325 372.09376 376.88926 381.20176 385.99726 388.8694 395.57963 401.8069 404.67903 406.59379 408.9829 416.17616 419.04829 423.84379 428.63929 430.55406 432.4688 439.66206 447.08818 451.40068 456.19618 460.99168 465.78718 470.58268 475.85255 483.27006 488.06556 492.86106 497.65657 500.5287 505.3242 509.6367 514.4322 516.3469 519.21908 524.0145 528.81 531.1991 535.99459 543.1878 548.4577 553.2532 558.04867 562.8441 564.75888 567.14797 570.0201 571.9348 576.7303 581.52578 586.3212 591.1167">read=free&#x00b7;everywrite(build+spend)=approval-gated&#x00b7;audit-logged</tspan></text>
<path d="M72 402H208.5C211.812 402 214.5 405.312 214.5 408V538.5C214.5 541.812 211.812 544.5 208.5 544.5H72C68.688 544.5 66 541.188 66 538.5V408C66 404.688 68.688 402 72 402ZM72 402" fill="#f8fafc"/>
<path stroke-width=".75" stroke-linecap="butt" stroke-miterlimit="4" stroke-linejoin="miter" fill="none" stroke="#cbd5e1" d="M72 402H208.5C211.812 402 214.5 405.312 214.5 408V538.5C214.5 541.812 211.812 544.5 208.5 544.5H72C68.688 544.5 66 541.188 66 538.5V408C66 404.688 68.688 402 72 402ZM72 402"/>
<text fill="#1877f2" xml:space="preserve" transform="matrix(1 0 0 1 0 0)" font-size="8.25" font-family="PZPNQD+LiberationSans-Bold" font-weight="bold"><tspan y="417.75" x="73.5 79.4565 85.412998 91.36949 93.65474 99.14924 105.105739 111.06223 116.55673">AUDIENCES</tspan></text>
<text fill="#334155" xml:space="preserve" transform="matrix(1 0 0 1 0 0)" font-size="7.5" font-family="TQVTSI+LiberationSans"><tspan y="433.5" x="73.5 75.165 76.83 80.58 82.6575 86.8275 90.9975 95.167499 99.337497 101.002498 105.17249 109.34249 113.09249 117.26249">list_audiences</tspan><tspan y="447" x="73.5 77.67 81.84 83.505 87.674999 91.84499 96.01499 100.18499 103.93499 108.10499 111.85499 113.93249 118.102489 124.34998 128.51999 132.68999 136.85999 141.02999 142.69498 146.86498 151.03498 154.78498">upload_custom_audience</tspan><tspan y="460.5" x="73.5 77.25 79.7475 83.917499 88.087497 90.16499 94.33499 98.50499 100.16999 104.33999 108.50999 112.25999 116.429988 118.094989 119.75999 123.50999 127.679988 131.84999 136.01999 140.18999 144.35999 146.02498 150.19498 154.36498 158.11498">create_lookalike_audience</tspan></text>
<path d="M231 402H367.5C370.812 402 373.5 405.312 373.5 408V538.5C373.5 541.812 370.812 544.5 367.5 544.5H231C227.688 544.5 225 541.188 225 538.5V408C225 404.688 227.688 402 231 402ZM231 402" fill="#f8fafc"/>
<path stroke-width=".75" stroke-linecap="butt" stroke-miterlimit="4" stroke-linejoin="miter" fill="none" stroke="#cbd5e1" d="M231 402H367.5C370.812 402 373.5 405.312 373.5 408V538.5C373.5 541.812 370.812 544.5 367.5 544.5H231C227.688 544.5 225 541.188 225 538.5V408C225 404.688 227.688 402 231 402ZM231 402"/>
<text fill="#1877f2" xml:space="preserve" transform="matrix(1 0 0 1 0 0)" font-size="8.25" font-family="PZPNQD+LiberationSans-Bold" font-weight="bold"><tspan y="417.75" x="232.5 238.4565 244.413 251.28525 256.77976 262.73628 265.0215 271.43177 277.38829 285.17628 293.42628 299.38279 305.3393">CAMPAIGNS&#x0026;ADS</tspan></text>
<text fill="#334155" xml:space="preserve" transform="matrix(1 0 0 1 0 0)" font-size="7.5" font-family="TQVTSI+LiberationSans"><tspan y="433.5" x="232.5 234.165 235.82999 239.57999 241.65749 245.82749 249.57749 253.74748 259.995 264.165 268.33503 270.00004 274.17005 278.34007">list_campaigns</tspan><tspan y="447" x="232.5 236.25 238.7475 242.9175 247.0875 249.165 253.33499 257.505 261.255 265.42503 271.67253 275.84254 280.01255 281.67756 285.84757">create_campaign</tspan><tspan y="460.5" x="232.5 236.25 238.7475 242.9175 247.0875 249.165 253.33499 257.505 261.67503 265.84504 270.01506 273.76506 277.93507">create_ad_set</tspan><tspan y="474" x="232.5 236.25 238.7475 242.9175 247.0875 249.165 253.33499 257.505 261.67503">create_ad</tspan></text>
<path d="M390 402H526.5C529.812 402 532.5 405.312 532.5 408V538.5C532.5 541.812 529.812 544.5 526.5 544.5H390C386.688 544.5 384 541.188 384 538.5V408C384 404.688 386.688 402 390 402ZM390 402" fill="#f8fafc"/>
<path stroke-width=".75" stroke-linecap="butt" stroke-miterlimit="4" stroke-linejoin="miter" fill="none" stroke="#cbd5e1" d="M390 402H526.5C529.812 402 532.5 405.312 532.5 408V538.5C532.5 541.812 529.812 544.5 526.5 544.5H390C386.688 544.5 384 541.188 384 538.5V408C384 404.688 386.688 402 390 402ZM390 402"/>
<text fill="#1877f2" xml:space="preserve" transform="matrix(1 0 0 1 0 0)" font-size="8.25" font-family="PZPNQD+LiberationSans-Bold" font-weight="bold"><tspan y="417.75" x="391.5 397.4565 403.41304 408.90754 414.86405 419.89656 422.1818 427.6763">CREATIVE</tspan></text>
<text fill="#334155" xml:space="preserve" transform="matrix(1 0 0 1 0 0)" font-size="7.5" font-family="TQVTSI+LiberationSans"><tspan y="433.5" x="391.5 395.67 399.84004 401.50505 405.67506 409.84507 414.01509 418.1851 421.9351 423.6001 427.7701 431.94013 436.11015 440.28016 444.03016 446.52766 450.69767 454.86769 456.9452 458.6102 462.3602">upload_video_creative</tspan><tspan y="447" x="391.5 395.25 397.7475 401.9175 406.08753 408.16505 412.33506 416.50508 420.67509 424.8451 429.0151 432.7651 435.2626 439.43263 443.60264 445.68016 447.34516 451.09516">create_ad_creative</tspan></text>
<path d="M549 402H685.5C688.812 402 691.5 405.312 691.5 408V538.5C691.5 541.812 688.812 544.5 685.5 544.5H549C545.688 544.5 543 541.188 543 538.5V408C543 404.688 545.688 402 549 402ZM549 402" fill="#f0fdf4"/>
<path stroke-width=".75" stroke-linecap="butt" stroke-miterlimit="4" stroke-linejoin="miter" fill="none" stroke="#16a34a" d="M549 402H685.5C688.812 402 691.5 405.312 691.5 408V538.5C691.5 541.812 688.812 544.5 685.5 544.5H549C545.688 544.5 543 541.188 543 538.5V408C543 404.688 545.688 402 549 402ZM549 402"/>
<text fill="#166534" xml:space="preserve" transform="matrix(1 0 0 1 0 0)" font-size="8.25" font-family="PZPNQD+LiberationSans-Bold" font-weight="bold"><tspan y="417.75" x="550.5 555.9945 561.489 566.9835 572.94 581.19 591.7335 596.766 601.35299 604.1002 608.6872">SPEND&#x2014;gated</tspan></text>
<text fill="#15803d" xml:space="preserve" transform="matrix(1 0 0 1 0 0)" font-size="7.5" font-family="TQVTSI+LiberationSans"><tspan y="433.5" x="550.5 554.67 558.42 560.4975 562.1625 565.9125 570.08248 572.16 576.32998 580.49996 584.24996 588.4199 594.6674 598.8374 603.0074 604.67239 608.84237">activate_campaign</tspan><tspan y="447" x="550.5 554.67 558.83999 563.00997 566.75997 570.92996 575.0999 579.2699 583.4399 587.60989 591.35989 595.52987">pause_ad_set</tspan><tspan y="460.5" x="550.5 554.25 558 562.17 563.83499 568.00497 572.1749 576.3449 580.5149 584.6849 588.4349 592.60488 594.6824 598.85238 603.02236 607.1923 611.3623 615.5323 619.7023">scale_ad_set_budget</tspan></text>
<text fill="#16a34a" xml:space="preserve" transform="matrix(1 0 0 1 0 0)" font-size="6.75" font-family="TQVTSI+LiberationSans"><tspan y="477" x="550.5 554.253 558.006 561.759 565.51199 570.7635 575.259 579.01199 582.76498 585.0127 588.7657 592.1407 597.7634 601.5164 606.0119 609.7649 613.1399">needsApprove/Pass</tspan></text>
<path d="M708 402H841.5C844.812 402 847.5 405.312 847.5 408V538.5C847.5 541.812 844.812 544.5 841.5 544.5H708C704.688 544.5 702 541.188 702 538.5V408C702 404.688 704.688 402 708 402ZM708 402" fill="#f8fafc"/>
<path stroke-width=".75" stroke-linecap="butt" stroke-miterlimit="4" stroke-linejoin="miter" fill="none" stroke="#cbd5e1" d="M708 402H841.5C844.812 402 847.5 405.312 847.5 408V538.5C847.5 541.812 844.812 544.5 841.5 544.5H708C704.688 544.5 702 541.188 702 538.5V408C702 404.688 704.688 402 708 402ZM708 402"/>
<text fill="#1877f2" xml:space="preserve" transform="matrix(1 0 0 1 0 0)" font-size="8.25" font-family="PZPNQD+LiberationSans-Bold" font-weight="bold"><tspan y="417.75" x="709.5 711.7853 717.74179 723.23629 725.52157 731.9318 737.8883 742.9208">INSIGHTS</tspan></text>
<text fill="#334155" xml:space="preserve" transform="matrix(1 0 0 1 0 0)" font-size="7.5" font-family="TQVTSI+LiberationSans"><tspan y="433.5" x="709.5 713.67 717.83999 719.9175 724.08749 727.83749 732.00747 738.25497 742.4249 746.5949 748.2599 752.4299 756.59988 760.76986 762.4348 766.6048 770.3548 772.0198 776.18978 780.35977 782.43728">get_campaign_insights</tspan><tspan y="447" x="709.5 713.67 717.83999 719.9175 724.08749 728.25747 732.4274 736.5974 740.3474 744.5174 746.5949 750.7649 752.4299 756.59988 760.34988 762.01486 766.1848 770.3548 772.4323">get_ad_set_insights</tspan></text>
<path stroke-width="1.5" stroke-linecap="butt" stroke-miterlimit="4" stroke-linejoin="miter" fill="none" stroke="#1877f2" d="M150 118.5V168"/>
<path d="M156.75 108 150 121.5 143.25 108ZM156.75 108" fill="#1877f2"/>
<path d="M156.75 157.5 150 171 143.25 157.5ZM156.75 157.5" fill="#1877f2"/>
<text fill="#1877f2" xml:space="preserve" transform="matrix(1 0 0 1 0 0)" font-size="8.25" font-family="PZPNQD+LiberationSans-Bold" font-weight="bold"><tspan y="147" x="157.5 160.24726 166.6575 171.69 174.43726 180.8475 185.43451">two-way</tspan></text>
<path stroke-width="1.35" stroke-linecap="butt" stroke-miterlimit="4" stroke-linejoin="miter" fill="none" stroke="#64748b" d="M697.5 118.5V168"/>
<path d="M703.574 158.551 697.5 170.699 691.426 158.551ZM703.574 158.551" fill="#64748b"/>
<path d="M300 202.5 312 196.5"/>
<path stroke-width="1.275" stroke-linecap="butt" stroke-miterlimit="4" stroke-linejoin="miter" fill="none" stroke="#64748b" d="M300 202.5 312 196.5"/>
<path d="M301.453 195.359H314.281L306.582 205.625ZM301.453 195.359" fill="#64748b"/>
<path d="M300 262.5 312 258.75"/>
<path stroke-width="1.275" stroke-linecap="butt" stroke-miterlimit="4" stroke-linejoin="miter" fill="none" stroke="#64748b" d="M300 262.5 312 258.75"/>
<path d="M301.77 255.938 314.434 257.988 305.191 266.887ZM301.77 255.938" fill="#64748b"/>
<text fill="#64748b" xml:space="preserve" transform="matrix(0 -1 1 0 0 0)" font-size="7.5" font-family="TQVTSI+LiberationSans"><tspan y="301.5" x="-322.5 -320.0025 -315.8325 -311.66249 -307.49247 -301.65748 -297.49497 -294.99748 -290.82746 -286.65745 -282.90745 -278.73744 -274.5674">reads/reasons</tspan></text>
<path stroke-width="1.35" stroke-linecap="butt" stroke-miterlimit="4" stroke-linejoin="miter" fill="none" stroke="#64748b" d="M172.5 357V369"/>
<path d="M178.574 359.551 172.5 371.699 166.426 359.551ZM178.574 359.551" fill="#64748b"/>
<text fill="#64748b" xml:space="preserve" transform="matrix(1 0 0 1 0 0)" font-size="7.875" font-family="TQVTSI+LiberationSans"><tspan y="366.75" x="178.5 182.4375 186.816 188.56424 190.31249">calls</tspan></text>
<path stroke-width="1.2" stroke-linecap="butt" stroke-miterlimit="4" stroke-linejoin="miter" fill="none" stroke="#64748b" d="M450 370.5V120"/>
<path d="M444.602 128.398 450 117.602 455.398 128.398ZM444.602 128.398" fill="#64748b"/>
<text fill="#64748b" xml:space="preserve" transform="matrix(0 -1 1 0 0 0)" font-size="7.875" font-family="TQVTSI+LiberationSans"><tspan y="454.5" x="-247.5 -241.81426 -237.0105 -232.20674 -226.96199">HTTPS</tspan></text>
<path d="M675 169.5 555 120"/>
<path stroke-width="1.2" stroke-linecap="butt" stroke-miterlimit="4" stroke-linejoin="miter" fill="none" stroke="#64748b" d="M675 169.5 555 120"/>
<path d="M560.707 128.195 552.781 119.086 564.824 118.211ZM560.707 128.195" fill="#64748b"/>
<text fill="#64748b" xml:space="preserve" transform="matrix(1 0 0 1 0 0)" font-size="7.875" font-family="TQVTSI+LiberationSans"><tspan y="147" x="621 622.7482 624.49649 628.43399 635.0017 639.3802 643.75869 645.94009">livedata</tspan></text>
<path d="M37.5 583.5H547.5C551.641 583.5 555 587.641 555 591V618C555 622.141 551.641 625.5 547.5 625.5H37.5C33.359 625.5 30 621.359 30 618V591C30 586.859 33.359 583.5 37.5 583.5ZM37.5 583.5" fill="#f0fdf4"/>
<path stroke-width=".975" stroke-linecap="butt" stroke-miterlimit="4" stroke-linejoin="miter" fill="none" stroke="#16a34a" d="M37.5 583.5H547.5C551.641 583.5 555 587.641 555 591V618C555 622.141 551.641 625.5 547.5 625.5H37.5C33.359 625.5 30 621.359 30 618V591C30 586.859 33.359 583.5 37.5 583.5ZM37.5 583.5"/>
<text fill="#166534" xml:space="preserve" transform="matrix(1 0 0 1 0 0)" font-size="9.375" font-family="PZPNQD+LiberationSans-Bold" font-weight="bold"><tspan y="601.5" x="43.5 51.309377 57.028127 62.746877 67.95937 75.77812 81.49687 87.21562 92.42812 96.075 101.79375 105.44062 110.65312 113.25 115.84688 123.66563 126.7875 132 137.71875 140.84062 146.55937 150.20626 155.41875 160.63124 168.95624 171.55312 179.86875 185.08124 190.79999 196.51874 201.73123">Moneyguardrails(enforcedincode)</tspan></text>
<text fill="#15803d" xml:space="preserve" transform="matrix(1 0 0 1 0 0)" font-size="8.25" font-family="TQVTSI+LiberationSans"><tspan y="616.5" x="43.5 48.9945 53.5815 58.168504 62.293504 66.8805 73.761 78.348 84.7665 89.3535 93.9405 96.225749 100.812747 105.39974 107.23124 111.801738 116.84249 121.363498 125.95049 130.53749 140.16524 144.29024 148.87725 155.75775 160.79851 162.63 167.21701 171.80402 176.39102 180.97803 185.56504 190.15204 194.73905 199.32605 203.91306 208.48355 212.60855 215.3558 219.94281 224.06781 228.19281 230.94007 235.06507 239.65207 244.23908 248.82608 253.41309 258.45384 263.04084 267.62785 272.21485 274.04637 276.3316 280.9186 285.96763 288.71488 295.12513 299.71214 306.58439 308.4159 313.0029 314.8344 319.8669 322.61418 327.20118 331.32618 333.15769 337.7447 343.7012 350.1197 354.7067 358.8317 363.4187 366.16596 372.58445 377.17146 381.29646 383.5817 385.4132 390.0002 396.8807 401.4677 406.05473 408.33998 412.92698 415.67424 422.55473 426.67973 431.26673 435.85374 440.88624 445.01124 446.84275 448.67427 452.79927">Pausedbydefault&#x00b7;&#x00b1;25%cap&#x00b7;independentcross-vendorauditor(Gemini)reviewseveryactionbeforeyourclick</tspan></text>
<path d="M574.5 583.5H862.5C866.641 583.5 870 587.641 870 591V618C870 622.141 866.641 625.5 862.5 625.5H574.5C570.359 625.5 567 621.359 567 618V591C567 586.859 570.359 583.5 574.5 583.5ZM574.5 583.5" fill="#f1f5f9"/>
<path stroke-width=".9" stroke-linecap="butt" stroke-miterlimit="4" stroke-linejoin="miter" fill="none" stroke="#cbd5e1" d="M574.5 583.5H862.5C866.641 583.5 870 587.641 870 591V618C870 622.141 866.641 625.5 862.5 625.5H574.5C570.359 625.5 567 621.359 567 618V591C567 586.859 570.359 583.5 574.5 583.5ZM574.5 583.5"/>
<text fill="#1e293b" xml:space="preserve" transform="matrix(1 0 0 1 0 0)" font-size="9.375" font-family="PZPNQD+LiberationSans-Bold" font-weight="bold"><tspan y="601.5" x="580.5 588.3094 594.02816 596.625 599.7469 602.34378 605.46566 611.1844 614.83126 620.04379 625.7625 634.0875 639.8063 647.61569 653.3344 658.54696 663.75949 666.3563 672.0751">Multi-brandbydesign</tspan></text>
<text fill="#64748b" xml:space="preserve" transform="matrix(1 0 0 1 0 0)" font-size="8.25" font-family="TQVTSI+LiberationSans"><tspan y="616.5" x="580.5 585.087 589.67398 596.55447 603.43496 608.0219 610.76919 615.35617 619.9431 626.81539 629.10067 635.9894 638.27468 642.86166 649.7339 652.48117 657.0681 661.6551 663.4866 667.6116 669.89688 672.6441 679.0626 686.1659 693.03817 698.53268 700.36416 704.9511 709.0761 713.6631 718.25009 722.83706 729.25558 739.7991 744.38607 751.26657 755.8535 760.4405 768.6905 770.522 775.10897 777.3942 780.1415 784.72848 788.85348 791.13876 793.886 798.47299 802.59799 804.88327 809.4702 812.21749">addabrandtotheregistry+aPlaybook&#x2014;nonewinfrastructure</tspan></text>
<text fill="#64748b" xml:space="preserve" transform="matrix(1 0 0 1 0 0)" font-size="9.375" font-family="TQVTSI+LiberationSans"><tspan y="657" x="30 36.76875 41.98125 47.193754 54.487504 59.700006 64.912509 67.509387 69.59064 72.71251 77.92501 80.00626 87.30001 92.51251 100.32189 105.00939 110.22189 115.434398 121.16251 126.375019 133.14377 140.96251 148.77188 153.98438 156.58126 164.4 170.12812 176.37186 178.45311 183.6656 188.3531 195.64685 201.3656 207.60935 212.82184 215.41872 220.63121 223.75308 228.96558 234.17807 236.25933 243.55307 249.28119 254.99994 257.08119 264.37495 269.58744 274.27494 278.96244 284.17494 289.38743 294.5999 297.19679 304.49055 310.2187 315.43119 323.24055 327.92805 333.14054 337.82804 340.94993 346.1624 348.75929 356.05305 358.13429 365.95304 368.5499 373.7624 381.58116 386.26866 391.48115 396.69364 401.90614">RunsentirelyonyourownMeta&#x00b7;Slack&#x00b7;Anthropic&#x00b7;Flyaccounts&#x00b7;nosecretsinthecode.</tspan></text>
<path d="M249.75 180H285.75C289.477 180 292.5 183.727 292.5 186.75 292.5 190.477 289.477 193.5 285.75 193.5H249.75C246.023 193.5 243 189.773 243 186.75 243 183.023 246.023 180 249.75 180ZM249.75 180" fill="#16a34a"/>
<text fill="#ffffff" xml:space="preserve" transform="matrix(1 0 0 1 0 0)" font-size="7.875" font-family="EBPQYR+LiberationSans-Bold" font-weight="bold"><tspan y="189.75" x="255.33594">&#x25cf;</tspan></text>
<text fill="#ffffff" xml:space="preserve" transform="matrix(1 0 0 1 0 0)" font-size="7.875" font-family="PZPNQD+LiberationSans-Bold" font-weight="bold"><tspan y="189.75" x="262.28169 267.08543 269.26679 274.51155">LIVE</tspan></text>
<text fill="#dbeafe" xml:space="preserve" transform="matrix(1 0 0 1 0 0)" font-size="8.625" font-family="TQVTSI+LiberationSans"><tspan y="347.25" x="66 71.416507 77.64375 82.439258 87.23476 92.03026 98.73188 104.47613 106.86525 109.73737 111.65212 116.447628 123.6495 126.03862 130.83412 135.62963 140.42513 145.22063 149.5245 160.54726 164.85976 169.65526 174.45076 178.76326 183.07576 187.87126 192.66677 197.45365 202.24053 207.03603 211.83153 216.62703 221.42253 226.21804 231.01354 235.80904 242.99367 247.78917 252.58467">&#x2022;ReadsStripefunnel&#x2014;checkout/abandonment</tspan></text>
<path d="M342 120.75H558C560.484 120.75 562.5 123.234 562.5 125.25V131.25C562.5 133.734 560.484 135.75 558 135.75H342C339.516 135.75 337.5 133.266 337.5 131.25V125.25C337.5 122.766 339.516 120.75 342 120.75ZM342 120.75" fill="#eef0ff"/>
<path stroke-width=".9" stroke-linecap="butt" stroke-miterlimit="4" stroke-linejoin="miter" fill="none" stroke="#635bff" d="M342 120.75H558C560.484 120.75 562.5 123.234 562.5 125.25V131.25C562.5 133.734 560.484 135.75 558 135.75H342C339.516 135.75 337.5 133.266 337.5 131.25V125.25C337.5 122.766 339.516 120.75 342 120.75ZM342 120.75"/>
<text fill="#4338ca" xml:space="preserve" transform="matrix(1 0 0 1 0 0)" font-size="7.875" font-family="PZPNQD+LiberationSans-Bold" font-weight="bold"><tspan y="131.25" x="364.42579 371.20616 376.4509 379.07328 382.13667 384.31803 389.12178 395.6895 401.37528 406.62004 410.99064 415.79438 418.85777 423.23628 427.61479 432.41853 435.0409 439.84465 444.64839 446.82975 453.3975 457.776 462.57975 466.95826 471.33677 475.71528 480.519 485.32276 490.13438 492.75675 497.5605 502.36424 507.16798 511.54649 515.9171 520.2878 525.09158 529.8953">+StripeAPI&#x00b7;read-onlycheckoutfunnel/LTV</tspan></text>
<path transform="matrix(1,0,0,-1,0,705)" stroke-width="1.2" stroke-linecap="butt" stroke-miterlimit="10" stroke-linejoin="miter" fill="none" stroke="#1877f2" d="M450 226V215"/>
<path transform="matrix(1,0,0,-1,0,705)" d="M446 218 450 213 454 218" fill="#1877f2"/>
<path transform="matrix(1,0,0,-1,0,705)" stroke-width="1" stroke-linecap="butt" stroke-miterlimit="10" stroke-linejoin="miter" fill="none" stroke="#1877f2" d="M446 218 450 213 454 218"/>
<text fill="#475569" xml:space="preserve" transform="matrix(1 0 -0 1 0 705)" font-size="7.5" font-family="Nimbus Sans"><tspan y="-215" x="458 462.17 466.34004 468.00505 469.67005 473.42005 475.50505 479.67506 483.84507 485.51008">daily pull</tspan></text>
<path transform="matrix(1,0,0,-1,0,705)" d="M44 206.07999V133.91999C44 131.20276 46.20276 129 48.92 129H851.08C853.79727 129 856 131.20276 856 133.91999V206.07999C856 208.79724 853.79727 211 851.08 211H48.92C46.20276 211 44 208.79724 44 206.07999Z" fill="#f5f9ff"/>
<path transform="matrix(1,0,0,-1,0,705)" stroke-width="1" stroke-linecap="butt" stroke-miterlimit="10" stroke-linejoin="miter" fill="none" stroke="#1877f2" d="M44 206.07999V133.91999C44 131.20276 46.20276 129 48.92 129H851.08C853.79727 129 856 131.20276 856 133.91999V206.07999C856 208.79724 853.79727 211 851.08 211H48.92C46.20276 211 44 208.79724 44 206.07999Z"/>
<path transform="matrix(1,0,0,-1,0,705)" d="M44 129H49V211H44Z" fill="#1877f2"/>
<text fill="#1877f2" xml:space="preserve" transform="matrix(1 0 -0 1 0 705)" font-size="12.5" font-family="Nimbus Sans" font-weight="bold"><tspan y="-193" x="62 71.025 79.3625 87.700008 97.425 106.450008 114.0875 117.5625 126.5875 136.3125 139.7875 143.26251 146.73752 150.21253 153.68753 162.71253 170.35002 173.82503 182.85002 192.57503 196.05004 199.52504 207.16254 212.02504 218.97504 225.92504 232.87503 239.82503">REPORTING  &#x00b7;  Ad ROI Tracker</tspan></text>
<text fill="#102a43" xml:space="preserve" transform="matrix(1 0 -0 1 0 705)" font-size="9" font-family="Nimbus Sans"><tspan y="-193" x="250 252.502 255.004 257.506 262.006 266.506 271.51 276.514 281.518 286.522 288.52 293.524 298.52799 301.03 306.034 311.038 313.03599 315.03398 319.53398 322.03599 325.033 330.037 332.539 335.536 340.54 345.04">&#x00b7;  scheduled daily refresh</tspan></text>
<text fill="#1f2933" xml:space="preserve" transform="matrix(1 0 -0 1 0 705)" font-size="10.5" font-family="Nimbus Sans"><tspan y="-174" x="62 69.0035 71.9225 75.419 77.75 83.588 89.425998 92.34499 98.18299 104.02099 109.27099 118.01749 123.855487 129.69348 132.61249 137.86249 140.7815 143.7005 149.8325 152.75151 155.67052 164.41703 170.25502 173.17403 179.01203 181.93103 187.76903 193.60703 195.93802 198.26902 203.51902 209.35701 212.85352 218.10352 221.02252 223.94153 226.86054 229.77954 232.69855 235.61756 238.53656 245.54006 250.79006 256.04005 261.87806 264.20906 267.12806 272.96607 278.80409 284.05409 289.8921 295.7301 301.5681 307.40614 310.90263 316.74064 319.65965 322.57865 328.41667 334.25468 337.17369 343.0117 346.50819 350.00468 355.84269 361.6807 367.5187 369.8497 372.1807 375.0997 378.0187 383.85673 389.69474 392.61375 398.45176 401.37077 406.62077 411.87077 417.70878 423.54679 429.3848 435.2228 437.5538">Stripe payments  +  Meta delivery   &#x00b7;   Excel dashboard, auto-rebuilt on a schedule</tspan></text>
<text fill="#475569" xml:space="preserve" transform="matrix(1 0 -0 1 0 705)" font-size="8.5" font-family="Nimbus Sans"><tspan y="-157" x="62 67.6695 72.3955 75.226 77.589 82.314998 85.14549 89.87149 94.59749 99.32349 101.686489 104.049488 108.77548 113.50148 116.33198 120.58198 125.307979 132.38848 137.11447 141.84047 143.72747 148.45346 153.17946 155.54247 159.79247 164.51847 169.24446 173.97046 178.69646 181.05947 185.30947 189.55947 191.92247 194.28548 197.11598 201.84198 206.56798 208.45497 210.81798 215.06798 219.79398 224.51998 228.76998 233.01998 235.85048 237.73748 242.46347 244.82648 246.71347 251.43947 256.16548 258.52848 261.35899 266.085 270.335 275.061 279.78703 284.51304 289.23905 291.60206 295.85206 300.57807 302.46507 304.35206 309.07807 313.32807 315.69108 320.41709 325.1431 327.5061 332.23213 336.48213 341.20814 344.03865 346.40165 351.12767 355.85368 360.10368 364.82969 367.1927 371.4427 376.1687 380.4187 382.7817 387.50773 394.58824 399.31425 402.14476 403.76826 408.01826 410.38127 412.26826 414.15525 416.51826 421.24427 423.60728 428.57127 430.93428 433.29728 436.12779 440.8538 445.5798 447.9428 454.0798 460.6928">Per brand: ad-campaign spend vs. real subscription revenue collected over each customer's life = true ROI</tspan></text>
<text fill="#475569" xml:space="preserve" transform="matrix(1 0 -0 1 0 705)" font-size="8.5" font-family="Nimbus Sans"><tspan y="-145" x="62 64.8305 69.556499 72.38699 77.11299 81.83899 86.56499 91.290988 96.01698 100.74298 103.10598 104.99298 109.71898 112.08198 116.807979 121.057979 123.420978 128.14698 132.87297 134.75997 137.12297 141.84897 146.57497 150.82497 157.90547 162.63147 167.35747 169.72048 172.55098 177.27698 180.10749 184.83348 189.08348 193.80948 198.05948 202.30948 207.03548 209.86598 212.22899 216.95499 221.68099 224.04399 228.76999 231.133 233.496 238.222 242.948 245.311 247.67401 250.03702 254.76302 259.489 261.85203 266.57804 271.30406 273.66706 278.39308 280.28007 285.00608 287.36909 289.7321 294.4581 297.2886 304.3691 305.9926 310.2426 312.60563 315.43614 320.16215 324.88816 329.61418 332.44468 334.80769 339.5337 344.2597 346.6227 350.8727 355.59873 360.32475 364.57475 369.30076 372.13127 376.38127 378.26826 382.99427 387.72029 391.97029 394.80079">(grounded in actual payment-processor data, not the ad platform's reported conversions).</tspan></text>
<path transform="matrix(1,0,0,-1,0,705)" d="M610 164.29999V151.70001C610 150.2088 611.2088 149 612.7 149H849.3C850.7912 149 852 150.2088 852 151.70001V164.29999C852 165.7912 850.7912 167 849.3 167H612.7C611.2088 167 610 165.7912 610 164.29999Z" fill="#edf5ff"/>
<path transform="matrix(1,0,0,-1,0,705)" stroke-width=".6" stroke-linecap="butt" stroke-miterlimit="10" stroke-linejoin="miter" fill="none" stroke="#d9e6f7" d="M610 164.29999V151.70001C610 150.2088 611.2088 149 612.7 149H849.3C850.7912 149 852 150.2088 852 151.70001V164.29999C852 165.7912 850.7912 167 849.3 167H612.7C611.2088 167 610 165.7912 610 164.29999Z"/>
<text fill="#0b3d91" xml:space="preserve" transform="matrix(1 0 -0 1 0 705)" font-size="8" font-family="Nimbus Sans"><tspan y="-155" x="618 622.672 628.008 630.672 635.12 639.568 644.016 648.688 650.912 653.136 655.36 660.696 665.144 667.368 673.144 677.592 684.256 688.704 693.152 694.928 699.376 703.824 706.048 710.936 713.6 718.048 722.048 726.048 730.496 733.16 735.384 739.384 741.16 745.16">&#x003c;Brand&#x003e; &#x00b7; Ad Campaign Tracker.xlsx</tspan></text>
<text fill="#475569" xml:space="preserve" transform="matrix(1 0 -0 1 0 705)" font-size="7.5" font-family="Nimbus Sans"><tspan y="-134" x="618 622.17 626.33999 628.00497 629.6699 633.8399 638.0099 640.5074 642.5924 646.3424 650.0924 652.5899 654.2549 658.42489 660.5099 664.2599 666.3449 668.0099 672.1799 674.2649 676.3499 680.5199 684.6899 686.35488 690.10488 692.1899 694.2749 696.3599 698.44497 700.94247 705.1124 709.2824 711.7799 715.9499 720.1199 724.28988 728.03988 729.70486 733.8748 735.5398">builder scripts in tools/ &#x00b7; reproducible</tspan></text>
</g>
</svg>
